<svg xmlns="http://www.w3.org/2000/svg" viewBox="0 0 64 64" fill="#744ef9" width="12" stroke-width="2"><path d="M44.5 19.3c-3.7-3.5-8.5-5.1-13.6-4.8-9.3.5-16.8 8.3-16.8 17.6 0 5.9 2.7 11.2 7.2 14.7v7.5c0 4 3.2 7.2 7.5 7.2h6.7c4 0 7.5-3.2 7.5-7.2v-7.5c4.5-3.5 7.5-8.5 7.5-14.4-.4-5.1-2.5-9.9-6-13.1zM37.3 54c0 1.1-.8 1.9-2.1 1.9h-6.7c-1.1 0-2.1-.8-2.1-1.9v-6.1h10.7l.2 6.1zm1.6-11.5h-4.3v-2.7c0-1.6-1.1-2.7-2.7-2.7s-2.7 1.1-2.7 2.7v2.7h-4.3c-3.5-2.4-5.6-6.1-5.6-10.7 0-6.4 5.3-12 11.7-12.3h.8c3.5 0 6.4 1.1 8.8 3.5s4 5.6 4 9.1c.2 4.3-1.9 8-5.7 10.4zM32 13.2c1.6 0 2.7-1.1 2.7-2.7V5.2c0-1.6-1.1-2.7-2.7-2.7s-2.7 1.1-2.7 2.7v5.3c0 1.6 1.1 2.7 2.7 2.7zM56.5 11.1c-1.1-1.1-2.7-1.1-3.7 0l-3.7 3.7c-1.1 1.1-1.1 2.7 0 3.7.5.5 1.3.8 1.9.8.8 0 1.3-.3 1.9-.8l3.7-3.7c1-1.1 1-2.7-.1-3.7zM14.9 14.5L11.2 11c-1.1-1.1-2.7-1.1-3.7 0s-1.1 2.7 0 3.7l3.7 3.7c.5.5 1.3.8 1.9.8s1.3-.3 1.9-.8c1-.9 1-2.8-.1-3.9zM8 31.9H2.7C1.1 31.9 0 33 0 34.6s1.1 2.7 2.7 2.7H8c1.6 0 2.7-1.1 2.7-2.7S9.6 31.9 8 31.9zM61.3 31.9H56c-1.6 0-2.7 1.1-2.7 2.7s1.1 2.7 2.7 2.7h5.3c1.6 0 2.7-1.1 2.7-2.7s-1.1-2.7-2.7-2.7z"/></svg>